<svg width="23" height="33" viewBox="0 0 23 33" fill="none" xmlns="http://www.w3.org/2000/svg">
<path d="M3.00082 24.0004C3.50082 21.0004 2.69999 14.4 1.49999 10C-8.10623e-06 4.5 3.00082 3.50037 3.00082 1.50037C3.00082 -0.499626 6.50017 1.50037 10.0002 4.50037C13.5002 7.50037 15.0002 6.49963 18.0002 8C21.0002 9.50037 20.0002 13 21.0002 14C22.0002 15 15.0002 13.5 13.5002 12.5C12.3002 11.7 9.00017 9.16667 7.50017 8V8.74883C7.88164 9.39206 8.00017 9.64305 8.00017 10C8.00017 10.3997 10.0002 12.8332 11.0002 14C11.1668 14.3333 11.6002 15.1 12.0002 15.5C12.5002 16 14.0002 19.5 15.0002 20.5C16.0002 21.5 16.5002 23 18.0002 24.0004C19.5002 25.0007 21.0002 26.5 21.5002 27C21.9002 27.4 21.3335 30.1667 21.0002 31.5C20.3335 31 18.9002 29.8 18.5002 29C18.1002 28.2 17.0002 26.3333 16.5002 25.5C15.5002 24.5 13.3002 22.2 12.5002 21C11.5002 19.5 11.5002 20.5 11.0002 19.5C10.5002 18.5 9.00017 15.5 8.00017 14C7.31121 12.9666 7.69869 10.9937 7.50017 9.29493V18C7.50017 21 5.00017 21.5007 5.50017 24.0004C5.90017 26.0001 4.0006 24.8336 3.00082 24.0004Z" fill="white"/>
<path d="M3.00082 24.0004C3.50082 21.0004 2.69999 14.4 1.49999 10C-8.10623e-06 4.5 3.00082 3.50037 3.00082 1.50037C3.00082 -0.499626 6.50017 1.50037 10.0002 4.50037C13.5002 7.50037 15.0002 6.49963 18.0002 8C21.0002 9.50037 20.0002 13 21.0002 14C22.0002 15 15.0002 13.5 13.5002 12.5C12.3002 11.7 9.00017 9.16667 7.50017 8C7.50017 10.3333 7.50017 15.6 7.50017 18C7.50017 21 5.00017 21.5007 5.50017 24.0004C5.90017 26.0001 4.0006 24.8336 3.00082 24.0004ZM7.35155 8.5C7.85155 10.3333 7.20017 12.8 8.00017 14C9.00017 15.5 10.5002 18.5 11.0002 19.5C11.5002 20.5 11.5002 19.5 12.5002 21C13.3002 22.2 15.5002 24.5 16.5002 25.5C17.0002 26.3333 18.1002 28.2 18.5002 29C18.9002 29.8 20.3335 31 21.0002 31.5C21.3335 30.1667 21.9002 27.4 21.5002 27C21.0002 26.5 19.5002 25.0007 18.0002 24.0004C16.5002 23 16.0002 21.5 15.0002 20.5C14.0002 19.5 12.5002 16 12.0002 15.5C11.6002 15.1 11.1668 14.3333 11.0002 14C10.0002 12.8332 8.00017 10.3997 8.00017 10C8.00017 9.6003 7.85155 9.33346 7.35155 8.5Z" stroke="black"/>
</svg>
