<svg width="2455" height="331" viewBox="0 0 2455 331" fill="none" xmlns="http://www.w3.org/2000/svg">
<path d="M505.307 296.268C355.888 301.991 214.195 304.584 64.5869 304.584C52.6663 304.584 30.7652 330.784 24.1435 307.608C18.8965 289.243 11.4476 265.991 20.3637 246.376C34.6031 215.049 41.9122 128.546 16.9619 100.477C-13.1566 66.5934 127.034 74.8315 143.584 72.8845C188.816 67.5631 225.581 59.6553 272.096 59.6553H475.447C623.893 59.6553 775.215 67.4747 923.349 58.1434C1102.76 46.842 1279.9 25.6375 1460.08 25.6375C1527.05 25.6375 1589.79 2.87185 1656.62 17.322C1709.24 28.698 1772.76 18.8339 1826.71 18.8339C1963.53 18.8339 2096.88 52.8518 2233.41 52.8518H2338.49C2373.27 52.8518 2430.11 34.8123 2439.41 76.6643C2444.82 100.987 2439.03 121.959 2439.03 148.102C2439.03 176.002 2432.23 201.982 2432.23 229.745C2432.23 260.068 2457.54 297.78 2413.33 297.78C2347.99 297.78 2285.65 318.191 2221.32 318.191C2187.51 318.191 2164.44 317.114 2136.65 294.379C2106.02 269.313 2085.39 276.862 2050.47 267.164C1976.2 246.532 1875.18 263.763 1799.5 263.763C1686.69 263.763 1575.89 250.155 1462.72 250.155C1385.76 250.155 1311.43 275.976 1234.8 277.37C1148.12 278.946 1062.08 276.114 975.51 282.661C819.099 294.491 662.319 290.255 505.307 296.268Z" fill="white" stroke="black" stroke-width="25" stroke-linecap="round"/>
</svg>
