<svg width="2428" height="1592" viewBox="0 0 2428 1592" fill="none" xmlns="http://www.w3.org/2000/svg">
<path d="M77.7253 115.665C187.983 86.3416 317.941 97.6967 430.63 97.6967H488.849C507.827 97.6967 524.09 91.228 543.474 91.228C571.886 91.228 599.444 97.6967 627.926 97.6967C692.857 97.6967 747.767 119.407 807.973 140.103C873.219 162.531 955.394 149.447 1023.6 149.447C1143.35 149.447 1248.26 122.242 1362.13 84.7592C1468.35 49.793 1576.33 41.1489 1687 31.5719C1870.47 15.6948 2054.24 13.6032 2238.28 13.6032C2280.22 13.6032 2287.28 8.72524 2313.03 40.1969C2334.36 66.2717 2341.96 78.2825 2335.67 110.994C2329 145.682 2307.11 187.495 2306.56 221.321C2305.53 285.425 2303.51 350.623 2306.56 414.664C2311.25 513.201 2346.79 616.782 2365.14 714.023C2403.99 919.944 2443.41 1151.76 2387.42 1358.02C2378.32 1391.57 2377.77 1455.31 2336.03 1456.13C2278.18 1457.26 2224.6 1482 2165.69 1482C1948.86 1482 1728.38 1465.38 1515.22 1510.75C1448.96 1524.86 1386.94 1549.89 1319 1554.6C1276.66 1557.53 1234.39 1558.71 1192.14 1563.22C1111.02 1571.89 1031.64 1579.04 949.925 1579.04C742.347 1579.04 535.879 1560.62 328.568 1551.72C252.206 1548.45 176.491 1540.22 100.006 1540.22C94.4603 1540.22 59.1177 1546.01 55.4441 1535.91C40.3356 1494.36 50.387 1440.19 32.8036 1401.5C2.73336 1335.35 16.6317 1238.99 16.6317 1167.91V718.695C16.6317 624.787 35.6618 537.525 45.3816 444.492C54.0092 361.914 55.4441 276.993 55.4441 194.009C55.4441 166.693 43.8285 124.68 77.7253 115.665Z" fill="#8FBE1A" stroke="black" stroke-width="25" stroke-linecap="round"/>
</svg>
